<svg width="583.4225219726562px" height="136.726220703125px" xmlns="http://www.w3.org/2000/svg" viewBox="-41.711260986328114 6.636889648437503 583.4225219726562 136.726220703125" style="background-color: rgba(0, 0, 0, 0);" preserveAspectRatio="xMidYMid"><defs><linearGradient id="editing-shiny-gradient" x1="0.04322727117869957" x2="0.9567727288213004" y1="0.2966316784620999" y2="0.7033683215379001" gradientUnits="objectBoundingBox"><stop offset="0.0" stop-color="#ffb200"></stop><stop offset="0.5" stop-color="#e10057"></stop><stop offset="1.0" stop-color="#5A1A80"></stop></linearGradient><linearGradient id="editing-shiny-gradient2" x1="0" x2="0" y1="0" y2="1"><stop offset="0.2" stop-color="#fff" stop-opacity="0.8"></stop><stop offset="0.8" stop-color="#fff" stop-opacity="0"></stop></linearGradient><filter id="editing-shiny2" x="-100%" y="-100%" width="300%" height="300%"><feMorphology operator="erode" radius="2"></feMorphology></filter><filter id="editing-shiny" x="-100%" y="-100%" width="300%" height="300%"><feFlood flood-color="#fff" result="flood"></feFlood><feConvolveMatrix in="SourceGraphic" result="conv" order="8,8" divisor="1" kernelMatrix="0 0 0 0 0 0 0 0 0 0 0 1 1 0 0 0 0 0 0 1 1 0 0 0 0 0 1 0 0 1 0 0 0 0 1 0 0 1 0 0 0 1 0 0 0 0 1 0 0 1 1 0 0 1 1 0 0 0 0 1 1 0 0 0 "></feConvolveMatrix><feOffset dx="0" dy="4" in="conv" result="offset"></feOffset><feComposite operator="in" in="flood" in2="offset" result="comp"></feComposite><feGaussianBlur in="offset" stdDeviation="3" result="shadow"></feGaussianBlur><feColorMatrix in="shadow" type="matrix" values="0.7 0 0 0 0  0 0.7 0 0 0  0 0 0.7 0 0  0 0 0 0.3 0" result="dark-shadow"></feColorMatrix><feOffset dx="0" dy="4" in="dark-shadow" result="offset-shadow"></feOffset><feOffset dx="0" dy="2" in="conv" result="offset-2"></feOffset><feComposite operator="out" in="offset" in2="offset-2" result="edge-diff"></feComposite><feGaussianBlur in="edge-diff" stdDeviation="1" result="edge-blur"></feGaussianBlur><feColorMatrix in="edge-blur" result="edge-shadow" type="matrix" values="0 0 0 0 0  0 0 0 0 0  0 0 0 0 0  0 0 0 0.5 0"></feColorMatrix><feComposite operator="in" in="edge-shadow" in2="offset" result="edge-shadow-in"></feComposite><feOffset dx="0" dy="1" in="edge-shadow-in" result="edge-shadow-final"></feOffset><feMerge result="out"><feMergeNode in="offset-shadow"></feMergeNode><feMergeNode in="comp"></feMergeNode><feMergeNode in="edge-shadow-final"></feMergeNode><feMergeNode in="SourceGraphic"></feMergeNode></feMerge></filter></defs><g filter="url(#editing-shiny)"><g transform="translate(43.18499755859375, 108.32281494140625)"><path d="M6 0L6-49.69L13.47-49.69L13.47-29.16L13.47-29.16Q14.34-30.84 15.64-31.78L15.64-31.78L15.64-31.78Q16.94-32.72 18.47-32.72L18.47-32.72L27.88-32.72L27.88-32.72Q29.09-32.72 30.17-32.09L30.17-32.09L30.17-32.09Q31.25-31.47 32.06-30.39L32.06-30.39L32.06-30.39Q32.88-29.31 33.34-27.88L33.34-27.88L33.34-27.88Q33.81-26.44 33.81-24.78L33.81-24.78L33.81-5.34L40.50-5.34L40.50-5.34Q40.38-4.25 39.89-3.27L39.89-3.27L39.89-3.27Q39.41-2.28 38.69-1.56L38.69-1.56L38.69-1.56Q37.97-0.84 37.03-0.42L37.03-0.42L37.03-0.42Q36.09 0 35.09 0L35.09 0L32.31 0L32.31 0Q31.09 0 30-0.63L30-0.63L30-0.63Q28.91-1.25 28.09-2.33L28.09-2.33L28.09-2.33Q27.28-3.41 26.81-4.84L26.81-4.84L26.81-4.84Q26.34-6.28 26.34-7.94L26.34-7.94L26.34-27.38L13.47-27.38L13.47 0L6 0ZM45.84-7.94L45.84-24.78L45.84-24.78Q45.84-26.44 46.31-27.88L46.31-27.88L46.31-27.88Q46.78-29.31 47.58-30.39L47.58-30.39L47.58-30.39Q48.38-31.47 49.47-32.09L49.47-32.09L49.47-32.09Q50.56-32.72 51.78-32.72L51.78-32.72L68.38-32.72L68.38-32.72Q69.59-32.72 70.67-32.09L70.67-32.09L70.67-32.09Q71.75-31.47 72.56-30.39L72.56-30.39L72.56-30.39Q73.38-29.31 73.84-27.88L73.84-27.88L73.84-27.88Q74.31-26.44 74.31-24.78L74.31-24.78L74.31-14.38L53.31-14.38L53.31-5.34L76.25-5.34L76.25-5.34Q76.13-4.25 75.64-3.27L75.64-3.27L75.64-3.27Q75.16-2.28 74.42-1.56L74.42-1.56L74.42-1.56Q73.69-0.84 72.75-0.42L72.75-0.42L72.75-0.42Q71.81 0 70.78 0L70.78 0L51.78 0L51.78 0Q50.56 0 49.47-0.63L49.47-0.63L49.47-0.63Q48.38-1.25 47.58-2.33L47.58-2.33L47.58-2.33Q46.78-3.41 46.31-4.84L46.31-4.84L46.31-4.84Q45.84-6.28 45.84-7.94L45.84-7.94ZM53.31-18.75L66.84-18.75L66.84-27.38L53.31-27.38L53.31-18.75ZM85.69-7.94L85.69-32.72L93.16-32.72L93.16-5.34L106.03-5.34L106.03-32.72L113.50-32.72L113.50-5.34L119.81-5.34L119.81-5.34Q119.69-4.25 119.20-3.27L119.20-3.27L119.20-3.27Q118.72-2.28 117.98-1.56L117.98-1.56L117.98-1.56Q117.25-0.84 116.31-0.42L116.31-0.42L116.31-0.42Q115.38 0 114.34 0L114.34 0L113.50 0L113.50 8.91L113.50 8.91Q113.50 10.56 113.03 12.02L113.03 12.02L113.03 12.02Q112.56 13.47 111.75 14.55L111.75 14.55L111.75 14.55Q110.94 15.63 109.86 16.27L109.86 16.27L109.86 16.27Q108.78 16.91 107.56 16.91L107.56 16.91L92.44 16.91L92.44 11.50L106.03 11.50L106.03-3.34L106.03-3.34Q105.19-1.78 103.86-0.89L103.86-0.89L103.86-0.89Q102.53 0 101.03 0L101.03 0L91.63 0L91.63 0Q90.41 0 89.31-0.63L89.31-0.63L89.31-0.63Q88.22-1.25 87.42-2.33L87.42-2.33L87.42-2.33Q86.63-3.41 86.16-4.84L86.16-4.84L86.16-4.84Q85.69-6.28 85.69-7.94L85.69-7.94ZM147.13 0L147.13-32.72L154.59-32.72L154.59-20.16L162.19-30.34L162.19-30.34Q163.19-31.53 164.27-32.14L164.27-32.14L164.27-32.14Q165.34-32.75 166.91-32.75L166.91-32.75L166.91-32.75Q168.16-32.75 169.30-32.13L169.30-32.13L169.30-32.13Q170.44-31.50 171.30-30.42L171.30-30.42L171.30-30.42Q172.16-29.34 172.67-27.91L172.67-27.91L172.67-27.91Q173.19-26.47 173.19-24.81L173.19-24.81L173.19-21.28L179.75-30.34L179.75-30.34Q180.75-31.50 182-32.13L182-32.13L182-32.13Q183.25-32.75 184.78-32.75L184.78-32.75L184.78-32.75Q186.03-32.75 187.17-32.13L187.17-32.13L187.17-32.13Q188.31-31.50 189.17-30.42L189.17-30.42L189.17-30.42Q190.03-29.34 190.55-27.91L190.55-27.91L190.55-27.91Q191.06-26.47 191.06-24.81L191.06-24.81L191.06-5.34L196.63-5.34L196.63-5.34Q196.50-4.25 196.02-3.27L196.02-3.27L196.02-3.27Q195.53-2.28 194.80-1.56L194.80-1.56L194.80-1.56Q194.06-0.84 193.13-0.42L193.13-0.42L193.13-0.42Q192.19 0 191.16 0L191.16 0L189.47 0L189.47 0Q188.25 0 187.17-0.63L187.17-0.63L187.17-0.63Q186.09-1.25 185.31-2.33L185.31-2.33L185.31-2.33Q184.53-3.41 184.08-4.84L184.08-4.84L184.08-4.84Q183.63-6.28 183.63-7.94L183.63-7.94L183.63-26.72L173.19-14.06L173.19 0L165.72 0L165.72-26.72L154.59-12.97L154.59 0L147.13 0ZM203.03-7.94L203.03-32.72L210.50-32.72L210.50-5.34L223.38-5.34L223.38-32.72L230.84-32.72L230.84-5.34L237.16-5.34L237.16-5.34Q237.03-4.25 236.55-3.27L236.55-3.27L236.55-3.27Q236.06-2.28 235.33-1.56L235.33-1.56L235.33-1.56Q234.59-0.84 233.66-0.42L233.66-0.42L233.66-0.42Q232.72 0 231.69 0L231.69 0L230.84 0L230.84 8.91L230.84 8.91Q230.84 10.56 230.38 12.02L230.38 12.02L230.38 12.02Q229.91 13.47 229.09 14.55L229.09 14.55L229.09 14.55Q228.28 15.63 227.20 16.27L227.20 16.27L227.20 16.27Q226.13 16.91 224.91 16.91L224.91 16.91L209.78 16.91L209.78 11.50L223.38 11.50L223.38-3.34L223.38-3.34Q222.53-1.78 221.20-0.89L221.20-0.89L221.20-0.89Q219.88 0 218.38 0L218.38 0L208.97 0L208.97 0Q207.75 0 206.66-0.63L206.66-0.63L206.66-0.63Q205.56-1.25 204.77-2.33L204.77-2.33L204.77-2.33Q203.97-3.41 203.50-4.84L203.50-4.84L203.50-4.84Q203.03-6.28 203.03-7.94L203.03-7.94ZM262.97-7.94L262.97-49.72L270.44-49.72L270.44-5.34L277.09-5.34L277.09-5.34Q276.91-4.09 276.39-3.09L276.39-3.09L276.39-3.09Q275.88-2.09 275.14-1.41L275.14-1.41L275.14-1.41Q274.41-0.72 273.48-0.36L273.48-0.36L273.48-0.36Q272.56 0 271.56 0L271.56 0L268.94 0L268.94 0Q267.72 0 266.63-0.63L266.63-0.63L266.63-0.63Q265.53-1.25 264.72-2.33L264.72-2.33L264.72-2.33Q263.91-3.41 263.44-4.84L263.44-4.84L263.44-4.84Q262.97-6.28 262.97-7.94L262.97-7.94ZM282.09-7.88L282.09-24.78L282.09-24.78Q282.09-26.44 282.56-27.89L282.56-27.89L282.56-27.89Q283.03-29.34 283.83-30.42L283.83-30.42L283.83-30.42Q284.63-31.50 285.69-32.11L285.69-32.11L285.69-32.11Q286.75-32.72 287.97-32.72L287.97-32.72L314.16-32.72L314.16-32.72Q314.03-31.63 313.55-30.64L313.55-30.64L313.55-30.64Q313.06-29.66 312.33-28.94L312.33-28.94L312.33-28.94Q311.59-28.22 310.66-27.80L310.66-27.80L310.66-27.80Q309.72-27.38 308.69-27.38L308.69-27.38L306.72-27.38L306.72-27.38Q307.31-26.94 307.89-26.25L307.89-26.25L307.89-26.25Q308.47-25.56 308.92-24.66L308.92-24.66L308.92-24.66Q309.38-23.75 309.64-22.67L309.64-22.67L309.64-22.67Q309.91-21.59 309.91-20.34L309.91-20.34L309.91-7.88L309.91-7.88Q309.91-6.25 309.44-4.81L309.44-4.81L309.44-4.81Q308.97-3.38 308.16-2.31L308.16-2.31L308.16-2.31Q307.34-1.25 306.27-0.63L306.27-0.63L306.27-0.63Q305.19 0 303.97 0L303.97 0L287.97 0L287.97 0Q286.75 0 285.69-0.63L285.69-0.63L285.69-0.63Q284.63-1.25 283.83-2.31L283.83-2.31L283.83-2.31Q283.03-3.38 282.56-4.81L282.56-4.81L282.56-4.81Q282.09-6.25 282.09-7.88L282.09-7.88ZM289.56-5.34L302.44-5.34L302.44-27.38L289.56-27.38L289.56-5.34ZM328.53 0L317.22-32.72L324.81-32.72L333.34-5.25L341.88-32.72L349.44-32.72L338.09 0L328.53 0ZM356.41-7.94L356.41-24.78L356.41-24.78Q356.41-26.44 356.88-27.88L356.88-27.88L356.88-27.88Q357.34-29.31 358.14-30.39L358.14-30.39L358.14-30.39Q358.94-31.47 360.03-32.09L360.03-32.09L360.03-32.09Q361.13-32.72 362.34-32.72L362.34-32.72L378.94-32.72L378.94-32.72Q380.16-32.72 381.23-32.09L381.23-32.09L381.23-32.09Q382.31-31.47 383.13-30.39L383.13-30.39L383.13-30.39Q383.94-29.31 384.41-27.88L384.41-27.88L384.41-27.88Q384.88-26.44 384.88-24.78L384.88-24.78L384.88-14.38L363.88-14.38L363.88-5.34L386.81-5.34L386.81-5.34Q386.69-4.25 386.20-3.27L386.20-3.27L386.20-3.27Q385.72-2.28 384.98-1.56L384.98-1.56L384.98-1.56Q384.25-0.84 383.31-0.42L383.31-0.42L383.31-0.42Q382.38 0 381.34 0L381.34 0L362.34 0L362.34 0Q361.13 0 360.03-0.63L360.03-0.63L360.03-0.63Q358.94-1.25 358.14-2.33L358.14-2.33L358.14-2.33Q357.34-3.41 356.88-4.84L356.88-4.84L356.88-4.84Q356.41-6.28 356.41-7.94L356.41-7.94ZM363.88-18.75L377.41-18.75L377.41-27.38L363.88-27.38L363.88-18.75ZM400.41-15.78L397.38-40.06L397.38-40.06Q397.31-40.50 397.25-41.11L397.25-41.11L397.25-41.11Q397.19-41.72 397.19-42.31L397.19-42.31L397.19-42.31Q397.19-43.53 397.58-44.61L397.58-44.61L397.58-44.61Q397.97-45.69 398.64-46.48L398.64-46.48L398.64-46.48Q399.31-47.28 400.22-47.75L400.22-47.75L400.22-47.75Q401.13-48.22 402.19-48.22L402.19-48.22L402.19-48.22Q403.25-48.22 404.19-47.77L404.19-47.77L404.19-47.77Q405.13-47.31 405.83-46.52L405.83-46.52L405.83-46.52Q406.53-45.72 406.92-44.66L406.92-44.66L406.92-44.66Q407.31-43.59 407.31-42.38L407.31-42.38L407.31-42.38Q407.31-41.75 407.27-41.14L407.27-41.14L407.27-41.14Q407.22-40.53 407.16-39.97L407.16-39.97L404-15.78L400.41-15.78ZM397.09-4.91L397.09-4.91L397.09-4.91Q397.09-6 397.50-6.95L397.50-6.95L397.50-6.95Q397.91-7.91 398.63-8.63L398.63-8.63L398.63-8.63Q399.34-9.34 400.30-9.77L400.30-9.77L400.30-9.77Q401.25-10.19 402.34-10.19L402.34-10.19L402.34-10.19Q403.44-10.19 404.39-9.77L404.39-9.77L404.39-9.77Q405.34-9.34 406.06-8.63L406.06-8.63L406.06-8.63Q406.78-7.91 407.20-6.95L407.20-6.95L407.20-6.95Q407.63-6 407.63-4.91L407.63-4.91L407.63-4.91Q407.63-3.81 407.20-2.86L407.20-2.86L407.20-2.86Q406.78-1.91 406.06-1.19L406.06-1.19L406.06-1.19Q405.34-0.47 404.38-0.06L404.38-0.06L404.38-0.06Q403.41 0.34 402.34 0.34L402.34 0.34L402.34 0.34Q401.25 0.34 400.30-0.06L400.30-0.06L400.30-0.06Q399.34-0.47 398.63-1.19L398.63-1.19L398.63-1.19Q397.91-1.91 397.50-2.86L397.50-2.86L397.50-2.86Q397.09-3.81 397.09-4.91Z" fill="url(#editing-shiny-gradient)"></path></g></g><g filter="url(#editing-shiny2)"><g transform="translate(43.18499755859375, 108.31500244140625)"><path d="M6 0L6-49.69L13.47-49.69L13.47-29.16L13.47-29.16Q14.34-30.84 15.64-31.78L15.64-31.78L15.64-31.78Q16.94-32.72 18.47-32.72L18.47-32.72L27.88-32.72L27.88-32.72Q29.09-32.72 30.17-32.09L30.17-32.09L30.17-32.09Q31.25-31.47 32.06-30.39L32.06-30.39L32.06-30.39Q32.88-29.31 33.34-27.88L33.34-27.88L33.34-27.88Q33.81-26.44 33.81-24.78L33.81-24.78L33.81-5.34L40.50-5.34L40.50-5.34Q40.38-4.25 39.89-3.27L39.89-3.27L39.89-3.27Q39.41-2.28 38.69-1.56L38.69-1.56L38.69-1.56Q37.97-0.84 37.03-0.42L37.03-0.42L37.03-0.42Q36.09 0 35.09 0L35.09 0L32.31 0L32.31 0Q31.09 0 30-0.63L30-0.63L30-0.63Q28.91-1.25 28.09-2.33L28.09-2.33L28.09-2.33Q27.28-3.41 26.81-4.84L26.81-4.84L26.81-4.84Q26.34-6.28 26.34-7.94L26.34-7.94L26.34-27.38L13.47-27.38L13.47 0L6 0ZM45.84-7.94L45.84-24.78L45.84-24.78Q45.84-26.44 46.31-27.88L46.31-27.88L46.31-27.88Q46.78-29.31 47.58-30.39L47.58-30.39L47.58-30.39Q48.38-31.47 49.47-32.09L49.47-32.09L49.47-32.09Q50.56-32.72 51.78-32.72L51.78-32.72L68.38-32.72L68.38-32.72Q69.59-32.72 70.67-32.09L70.67-32.09L70.67-32.09Q71.75-31.47 72.56-30.39L72.56-30.39L72.56-30.39Q73.38-29.31 73.84-27.88L73.84-27.88L73.84-27.88Q74.31-26.44 74.31-24.78L74.31-24.78L74.31-14.38L53.31-14.38L53.31-5.34L76.25-5.34L76.25-5.34Q76.13-4.25 75.64-3.27L75.64-3.27L75.64-3.27Q75.16-2.28 74.42-1.56L74.42-1.56L74.42-1.56Q73.69-0.84 72.75-0.42L72.75-0.42L72.75-0.42Q71.81 0 70.78 0L70.78 0L51.78 0L51.78 0Q50.56 0 49.47-0.63L49.47-0.63L49.47-0.63Q48.38-1.25 47.58-2.33L47.58-2.33L47.58-2.33Q46.78-3.41 46.31-4.84L46.31-4.84L46.31-4.84Q45.84-6.28 45.84-7.94L45.84-7.94ZM53.31-18.75L66.84-18.75L66.84-27.38L53.31-27.38L53.31-18.75ZM85.69-7.94L85.69-32.72L93.16-32.72L93.16-5.34L106.03-5.34L106.03-32.72L113.50-32.72L113.50-5.34L119.81-5.34L119.81-5.34Q119.69-4.25 119.20-3.27L119.20-3.27L119.20-3.27Q118.72-2.28 117.98-1.56L117.98-1.56L117.98-1.56Q117.25-0.84 116.31-0.42L116.31-0.42L116.31-0.42Q115.38 0 114.34 0L114.34 0L113.50 0L113.50 8.91L113.50 8.91Q113.50 10.56 113.03 12.02L113.03 12.02L113.03 12.02Q112.56 13.47 111.75 14.55L111.75 14.55L111.75 14.55Q110.94 15.63 109.86 16.27L109.86 16.27L109.86 16.27Q108.78 16.91 107.56 16.91L107.56 16.91L92.44 16.91L92.44 11.50L106.03 11.50L106.03-3.34L106.03-3.34Q105.19-1.78 103.86-0.89L103.86-0.89L103.86-0.89Q102.53 0 101.03 0L101.03 0L91.63 0L91.63 0Q90.41 0 89.31-0.63L89.31-0.63L89.31-0.63Q88.22-1.25 87.42-2.33L87.42-2.33L87.42-2.33Q86.63-3.41 86.16-4.84L86.16-4.84L86.16-4.84Q85.69-6.28 85.69-7.94L85.69-7.94ZM147.13 0L147.13-32.72L154.59-32.72L154.59-20.16L162.19-30.34L162.19-30.34Q163.19-31.53 164.27-32.14L164.27-32.14L164.27-32.14Q165.34-32.75 166.91-32.75L166.91-32.75L166.91-32.75Q168.16-32.75 169.30-32.13L169.30-32.13L169.30-32.13Q170.44-31.50 171.30-30.42L171.30-30.42L171.30-30.42Q172.16-29.34 172.67-27.91L172.67-27.91L172.67-27.91Q173.19-26.47 173.19-24.81L173.19-24.81L173.19-21.28L179.75-30.34L179.75-30.34Q180.75-31.50 182-32.13L182-32.13L182-32.13Q183.25-32.75 184.78-32.75L184.78-32.75L184.78-32.75Q186.03-32.75 187.17-32.13L187.17-32.13L187.17-32.13Q188.31-31.50 189.17-30.42L189.17-30.42L189.17-30.42Q190.03-29.34 190.55-27.91L190.55-27.91L190.55-27.91Q191.06-26.47 191.06-24.81L191.06-24.81L191.06-5.34L196.63-5.34L196.63-5.34Q196.50-4.25 196.02-3.27L196.02-3.27L196.02-3.27Q195.53-2.28 194.80-1.56L194.80-1.56L194.80-1.56Q194.06-0.84 193.13-0.42L193.13-0.42L193.13-0.42Q192.19 0 191.16 0L191.16 0L189.47 0L189.47 0Q188.25 0 187.17-0.63L187.17-0.63L187.17-0.63Q186.09-1.25 185.31-2.33L185.31-2.33L185.31-2.33Q184.53-3.41 184.08-4.84L184.08-4.84L184.08-4.84Q183.63-6.28 183.63-7.94L183.63-7.94L183.63-26.72L173.19-14.06L173.19 0L165.72 0L165.72-26.72L154.59-12.97L154.59 0L147.13 0ZM203.03-7.94L203.03-32.72L210.50-32.72L210.50-5.34L223.38-5.34L223.38-32.72L230.84-32.72L230.84-5.34L237.16-5.34L237.16-5.34Q237.03-4.25 236.55-3.27L236.55-3.27L236.55-3.27Q236.06-2.28 235.33-1.56L235.33-1.56L235.33-1.56Q234.59-0.84 233.66-0.42L233.66-0.42L233.66-0.42Q232.72 0 231.69 0L231.69 0L230.84 0L230.84 8.91L230.84 8.91Q230.84 10.56 230.38 12.02L230.38 12.02L230.38 12.02Q229.91 13.47 229.09 14.55L229.09 14.55L229.09 14.55Q228.28 15.63 227.20 16.27L227.20 16.27L227.20 16.27Q226.13 16.91 224.91 16.91L224.91 16.91L209.78 16.91L209.78 11.50L223.38 11.50L223.38-3.34L223.38-3.34Q222.53-1.78 221.20-0.89L221.20-0.89L221.20-0.89Q219.88 0 218.38 0L218.38 0L208.97 0L208.97 0Q207.75 0 206.66-0.63L206.66-0.63L206.66-0.63Q205.56-1.25 204.77-2.33L204.77-2.33L204.77-2.33Q203.97-3.41 203.50-4.84L203.50-4.84L203.50-4.84Q203.03-6.28 203.03-7.94L203.03-7.94ZM262.97-7.94L262.97-49.72L270.44-49.72L270.44-5.34L277.09-5.34L277.09-5.34Q276.91-4.09 276.39-3.09L276.39-3.09L276.39-3.09Q275.88-2.09 275.14-1.41L275.14-1.41L275.14-1.41Q274.41-0.72 273.48-0.36L273.48-0.36L273.48-0.36Q272.56 0 271.56 0L271.56 0L268.94 0L268.94 0Q267.72 0 266.63-0.63L266.63-0.63L266.63-0.63Q265.53-1.25 264.72-2.33L264.72-2.33L264.72-2.33Q263.91-3.41 263.44-4.84L263.44-4.84L263.44-4.84Q262.97-6.28 262.97-7.94L262.97-7.94ZM282.09-7.88L282.09-24.78L282.09-24.78Q282.09-26.44 282.56-27.89L282.56-27.89L282.56-27.89Q283.03-29.34 283.83-30.42L283.83-30.42L283.83-30.42Q284.63-31.50 285.69-32.11L285.69-32.11L285.69-32.11Q286.75-32.72 287.97-32.72L287.97-32.72L314.16-32.72L314.16-32.72Q314.03-31.63 313.55-30.64L313.55-30.64L313.55-30.64Q313.06-29.66 312.33-28.94L312.33-28.94L312.33-28.94Q311.59-28.22 310.66-27.80L310.66-27.80L310.66-27.80Q309.72-27.38 308.69-27.38L308.69-27.38L306.72-27.38L306.72-27.38Q307.31-26.94 307.89-26.25L307.89-26.25L307.89-26.25Q308.47-25.56 308.92-24.66L308.92-24.66L308.92-24.66Q309.38-23.75 309.64-22.67L309.64-22.67L309.64-22.67Q309.91-21.59 309.91-20.34L309.91-20.34L309.91-7.88L309.91-7.88Q309.91-6.25 309.44-4.81L309.44-4.81L309.44-4.81Q308.97-3.38 308.16-2.31L308.16-2.31L308.16-2.31Q307.34-1.25 306.27-0.63L306.27-0.63L306.27-0.63Q305.19 0 303.97 0L303.97 0L287.97 0L287.97 0Q286.75 0 285.69-0.63L285.69-0.63L285.69-0.63Q284.63-1.25 283.83-2.31L283.83-2.31L283.83-2.31Q283.03-3.38 282.56-4.81L282.56-4.81L282.56-4.81Q282.09-6.25 282.09-7.88L282.09-7.88ZM289.56-5.34L302.44-5.34L302.44-27.38L289.56-27.38L289.56-5.34ZM328.53 0L317.22-32.72L324.81-32.72L333.34-5.25L341.88-32.72L349.44-32.72L338.09 0L328.53 0ZM356.41-7.94L356.41-24.78L356.41-24.78Q356.41-26.44 356.88-27.88L356.88-27.88L356.88-27.88Q357.34-29.31 358.14-30.39L358.14-30.39L358.14-30.39Q358.94-31.47 360.03-32.09L360.03-32.09L360.03-32.09Q361.13-32.72 362.34-32.72L362.34-32.72L378.94-32.72L378.94-32.72Q380.16-32.72 381.23-32.09L381.23-32.09L381.23-32.09Q382.31-31.47 383.13-30.39L383.13-30.39L383.13-30.39Q383.94-29.31 384.41-27.88L384.41-27.88L384.41-27.88Q384.88-26.44 384.88-24.78L384.88-24.78L384.88-14.38L363.88-14.38L363.88-5.34L386.81-5.34L386.81-5.34Q386.69-4.25 386.20-3.27L386.20-3.27L386.20-3.27Q385.72-2.28 384.98-1.56L384.98-1.56L384.98-1.56Q384.25-0.84 383.31-0.42L383.31-0.42L383.31-0.42Q382.38 0 381.34 0L381.34 0L362.34 0L362.34 0Q361.13 0 360.03-0.63L360.03-0.63L360.03-0.63Q358.94-1.25 358.14-2.33L358.14-2.33L358.14-2.33Q357.34-3.41 356.88-4.84L356.88-4.84L356.88-4.84Q356.41-6.28 356.41-7.94L356.41-7.94ZM363.88-18.75L377.41-18.75L377.41-27.38L363.88-27.38L363.88-18.75ZM400.41-15.78L397.38-40.06L397.38-40.06Q397.31-40.50 397.25-41.11L397.25-41.11L397.25-41.11Q397.19-41.72 397.19-42.31L397.19-42.31L397.19-42.31Q397.19-43.53 397.58-44.61L397.58-44.61L397.58-44.61Q397.97-45.69 398.64-46.48L398.64-46.48L398.64-46.48Q399.31-47.28 400.22-47.75L400.22-47.75L400.22-47.75Q401.13-48.22 402.19-48.22L402.19-48.22L402.19-48.22Q403.25-48.22 404.19-47.77L404.19-47.77L404.19-47.77Q405.13-47.31 405.83-46.52L405.83-46.52L405.83-46.52Q406.53-45.72 406.92-44.66L406.92-44.66L406.92-44.66Q407.31-43.59 407.31-42.38L407.31-42.38L407.31-42.38Q407.31-41.75 407.27-41.14L407.27-41.14L407.27-41.14Q407.22-40.53 407.16-39.97L407.16-39.97L404-15.78L400.41-15.78ZM397.09-4.91L397.09-4.91L397.09-4.91Q397.09-6 397.50-6.95L397.50-6.95L397.50-6.95Q397.91-7.91 398.63-8.63L398.63-8.63L398.63-8.63Q399.34-9.34 400.30-9.77L400.30-9.77L400.30-9.77Q401.25-10.19 402.34-10.19L402.34-10.19L402.34-10.19Q403.44-10.19 404.39-9.77L404.39-9.77L404.39-9.77Q405.34-9.34 406.06-8.63L406.06-8.63L406.06-8.63Q406.78-7.91 407.20-6.95L407.20-6.95L407.20-6.95Q407.63-6 407.63-4.91L407.63-4.91L407.63-4.91Q407.63-3.81 407.20-2.86L407.20-2.86L407.20-2.86Q406.78-1.91 406.06-1.19L406.06-1.19L406.06-1.19Q405.34-0.47 404.38-0.06L404.38-0.06L404.38-0.06Q403.41 0.34 402.34 0.34L402.34 0.34L402.34 0.34Q401.25 0.34 400.30-0.06L400.30-0.06L400.30-0.06Q399.34-0.47 398.63-1.19L398.63-1.19L398.63-1.19Q397.91-1.91 397.50-2.86L397.50-2.86L397.50-2.86Q397.09-3.81 397.09-4.91Z" fill="url(#editing-shiny-gradient2)"></path></g></g><style>text {
  font-size: 64px;
  font-family: Arial Black;
  dominant-baseline: central;
  text-anchor: middle;
}</style></svg>